<svg xmlns="http://www.w3.org/2000/svg" width="340.74835205078125" height="345.485595703125" viewBox="-180.3937530517578 -120.54485321044922 340.74835205078125 345.485595703125"><title>Neo4j Graph Visualization</title><desc>Created using Neo4j (http://www.neo4j.com/)</desc><g class="layer relationships"><g class="relationship" transform="translate(27.391608548126808 195.9407290371093) rotate(256.3698860223663)"><path class="outline" fill="#A5ABB6" stroke="none" d="M 25 0.5 L 46.94624783013458 0.5 L 46.94624783013458 -0.5 L 25 -0.5 Z M 92.50874783013458 0.5 L 114.45499566026916 0.5 L 114.45499566026916 3.5 L 121.45499566026916 0 L 114.45499566026916 -3.5 L 114.45499566026916 -0.5 L 92.50874783013458 -0.5 Z"/><text text-anchor="middle" pointer-events="none" font-size="8px" fill="#000000" x="69.72749783013458" y="3" transform="rotate(180 69.72749783013458 0)" font-family="sans-serif">ACTED_IN</text></g><g class="relationship" transform="translate(131.35461858563414 102.50960484755342) rotate(199.44944349868274)"><path class="outline" fill="#A5ABB6" stroke="none" d="M 25 0.5 L 47.1466432632068 0.5 L 47.1466432632068 -0.5 L 25 -0.5 Z M 92.7091432632068 0.5 L 114.8557865264136 0.5 L 114.8557865264136 3.5 L 121.8557865264136 0 L 114.8557865264136 -3.5 L 114.8557865264136 -0.5 L 92.7091432632068 -0.5 Z"/><text text-anchor="middle" pointer-events="none" font-size="8px" fill="#000000" x="69.9278932632068" y="3" transform="rotate(180 69.9278932632068 0)" font-family="sans-serif">ACTED_IN</text></g><g class="relationship" transform="translate(119.35558741187936 -22.22011829790974) rotate(509.0547320065241)"><path class="outline" fill="#A5ABB6" stroke="none" d="M 25 0.5 L 52.34686444973646 0.5 L 52.34686444973646 -0.5 L 25 -0.5 Z M 88.12030194973646 0.5 L 115.46716639947292 0.5 L 115.46716639947292 3.5 L 122.46716639947292 0 L 115.46716639947292 -3.5 L 115.46716639947292 -0.5 L 88.12030194973646 -0.5 Z"/><text text-anchor="middle" pointer-events="none" font-size="8px" fill="#000000" x="70.23358319973646" y="3" transform="rotate(180 70.23358319973646 0)" font-family="sans-serif">WROTE</text></g><g class="relationship" transform="translate(21.89550450400525 -91.5448553276094) rotate(461.30439604608586)"><path class="outline" fill="#A5ABB6" stroke="none" d="M 25 0.5 L 52.62675054464515 0.5 L 52.62675054464515 -0.5 L 25 -0.5 Z M 88.40018804464515 0.5 L 116.0269385892903 0.5 L 116.0269385892903 3.5 L 123.0269385892903 0 L 116.0269385892903 -3.5 L 116.0269385892903 -0.5 L 88.40018804464515 -0.5 Z"/><text text-anchor="middle" pointer-events="none" font-size="8px" fill="#000000" x="70.51346929464515" y="3" transform="rotate(180 70.51346929464515 0)" font-family="sans-serif">WROTE</text></g><g class="relationship" transform="translate(-84.90519130238876 -71.74816628839139) rotate(418.1806229960027)"><path class="outline" fill="#A5ABB6" stroke="none" d="M 25 0.5 L 46.81974680972604 0.5 L 46.81974680972604 -0.5 L 25 -0.5 Z M 93.71037180972604 0.5 L 115.53011861945208 0.5 L 115.53011861945208 3.5 L 122.53011861945208 0 L 115.53011861945208 -3.5 L 115.53011861945208 -0.5 L 93.71037180972604 -0.5 Z"/><text text-anchor="middle" pointer-events="none" font-size="8px" fill="#000000" x="70.26505930972604" y="3" font-family="sans-serif">DIRECTED</text></g><g class="relationship" transform="translate(-151.39374997936832 24.991835844311225) rotate(371.2197495276569)"><path class="outline" fill="#A5ABB6" stroke="none" d="M 25 0.5 L 47.26067732618884 0.5 L 47.26067732618884 -0.5 L 25 -0.5 Z M 92.82317732618884 0.5 L 115.08385465237768 0.5 L 115.08385465237768 3.5 L 122.08385465237768 0 L 115.08385465237768 -3.5 L 115.08385465237768 -0.5 L 92.82317732618884 -0.5 Z"/><text text-anchor="middle" pointer-events="none" font-size="8px" fill="#000000" x="70.04192732618884" y="3" font-family="sans-serif">ACTED_IN</text></g><g class="relationship" transform="translate(-119.49811624532964 148.1163709328433) rotate(319.9371017952788)"><path class="outline" fill="#A5ABB6" stroke="none" d="M 25 0.5 L 52.02994520566969 0.5 L 52.02994520566969 -0.5 L 25 -0.5 Z M 87.80338270566969 0.5 L 114.83332791133938 0.5 L 114.83332791133938 3.5 L 121.83332791133938 0 L 114.83332791133938 -3.5 L 114.83332791133938 -0.5 L 87.80338270566969 -0.5 Z"/><text text-anchor="middle" pointer-events="none" font-size="8px" fill="#000000" x="69.91666395566969" y="3" font-family="sans-serif">WROTE</text></g></g><g class="layer nodes"><g class="node" aria-label="graph-node179" transform="translate(-7.120940541057693,53.61030463945605)"><circle class="outline" cx="0" cy="0" r="25" fill="#F79767" stroke="#f36924" stroke-width="2px"/><text class="caption" text-anchor="middle" pointer-events="none" x="0" y="-5" font-size="10px" fill="#FFFFFF" font-family="sans-serif"> Captain</text><text class="caption" text-anchor="middle" pointer-events="none" x="0" y="5" font-size="10px" fill="#FFFFFF" font-family="sans-serif"> America:</text><text class="caption" text-anchor="middle" pointer-events="none" x="0" y="15" font-size="10px" fill="#FFFFFF" font-family="sans-serif"> Th</text></g><g class="node" aria-label="graph-node185" transform="translate(27.391608548126808,195.9407290371093)"><circle class="outline" cx="0" cy="0" r="25" fill="#C990C0" stroke="#b261a5" stroke-width="2px"/><text class="caption" text-anchor="middle" pointer-events="none" x="0" y="0" font-size="10px" fill="#FFFFFF" font-family="sans-serif"> Samuel L.</text><text class="caption" text-anchor="middle" pointer-events="none" x="0" y="10" font-size="10px" fill="#FFFFFF" font-family="sans-serif"> Jackson</text></g><g class="node" aria-label="graph-node184" transform="translate(131.35461858563414,102.50960484755342)"><circle class="outline" cx="0" cy="0" r="25" fill="#C990C0" stroke="#b261a5" stroke-width="2px"/><text class="caption" text-anchor="middle" pointer-events="none" x="0" y="0" font-size="10px" fill="#FFFFFF" font-family="sans-serif"> Chris</text><text class="caption" text-anchor="middle" pointer-events="none" x="0" y="10" font-size="10px" fill="#FFFFFF" font-family="sans-serif"> Evans</text></g><g class="node" aria-label="graph-node182" transform="translate(119.35558741187936,-22.22011829790974)"><circle class="outline" cx="0" cy="0" r="25" fill="#C990C0" stroke="#b261a5" stroke-width="2px"/><text class="caption" text-anchor="middle" pointer-events="none" x="0" y="0" font-size="10px" fill="#FFFFFF" font-family="sans-serif"> Stephen</text><text class="caption" text-anchor="middle" pointer-events="none" x="0" y="10" font-size="10px" fill="#FFFFFF" font-family="sans-serif"> McFe…</text></g><g class="node" aria-label="graph-node181" transform="translate(21.89550450400525,-91.5448553276094)"><circle class="outline" cx="0" cy="0" r="25" fill="#C990C0" stroke="#b261a5" stroke-width="2px"/><text class="caption" text-anchor="middle" pointer-events="none" x="0" y="5" font-size="10px" fill="#FFFFFF" font-family="sans-serif"> Christop…</text></g><g class="node" aria-label="graph-node180" transform="translate(-84.90519130238876,-71.74816628839139)"><circle class="outline" cx="0" cy="0" r="25" fill="#C990C0" stroke="#b261a5" stroke-width="2px"/><text class="caption" text-anchor="middle" pointer-events="none" x="0" y="0" font-size="10px" fill="#FFFFFF" font-family="sans-serif"> Joe</text><text class="caption" text-anchor="middle" pointer-events="none" x="0" y="10" font-size="10px" fill="#FFFFFF" font-family="sans-serif"> Johnst…</text></g><g class="node" aria-label="graph-node186" transform="translate(-151.39374997936832,24.991835844311225)"><circle class="outline" cx="0" cy="0" r="25" fill="#C990C0" stroke="#b261a5" stroke-width="2px"/><text class="caption" text-anchor="middle" pointer-events="none" x="0" y="0" font-size="10px" fill="#FFFFFF" font-family="sans-serif"> Hugo</text><text class="caption" text-anchor="middle" pointer-events="none" x="0" y="10" font-size="10px" fill="#FFFFFF" font-family="sans-serif"> Weavi…</text></g><g class="node" aria-label="graph-node183" transform="translate(-119.49811624532964,148.1163709328433)"><circle class="outline" cx="0" cy="0" r="25" fill="#C990C0" stroke="#b261a5" stroke-width="2px"/><text class="caption" text-anchor="middle" pointer-events="none" x="0" y="0" font-size="10px" fill="#FFFFFF" font-family="sans-serif"> Joe</text><text class="caption" text-anchor="middle" pointer-events="none" x="0" y="10" font-size="10px" fill="#FFFFFF" font-family="sans-serif"> Simon</text></g></g></svg>