<svg xmlns="http://www.w3.org/2000/svg" width="238.63296508789062" height="238.3651580810547" viewBox="-107.15359497070312 -103.79052734375 238.63296508789062 238.3651580810547"><title>Neo4j Graph Visualization</title><desc>Created using Neo4j (http://www.neo4j.com/)</desc><g class="layer relationships"><g class="relationship" transform="translate(31.32867033117058 105.57462728337494) rotate(278.0867586707956)"><path class="outline" fill="#A5ABB6" stroke="none" d="M 25 0.5 L 64.80709361105008 0.5 L 64.80709361105008 -0.5 L 25 -0.5 Z M 110.36959361105008 0.5 L 150.17668722210016 0.5 L 150.17668722210016 3.5 L 157.17668722210016 0 L 150.17668722210016 -3.5 L 150.17668722210016 -0.5 L 110.36959361105008 -0.5 Z"/><text text-anchor="middle" pointer-events="none" font-size="8px" fill="#000000" x="87.58834361105008" y="3" font-family="sans-serif">ACTED_IN</text></g><g class="relationship" transform="translate(31.32867033117058 105.57462728337494) rotate(244.9844453399187)"><path class="outline" fill="#A5ABB6" stroke="none" d="M 25 0.5 L 49.86155297991101 0.5 L 49.86155297991101 -0.5 L 25 -0.5 Z M 95.42405297991101 0.5 L 120.28560595982202 0.5 L 120.28560595982202 3.5 L 127.28560595982202 0 L 120.28560595982202 -3.5 L 120.28560595982202 -0.5 L 95.42405297991101 -0.5 Z"/><text text-anchor="middle" pointer-events="none" font-size="8px" fill="#000000" x="72.64280297991101" y="3" transform="rotate(180 72.64280297991101 0)" font-family="sans-serif">ACTED_IN</text></g><g class="relationship" transform="translate(31.32867033117058 105.57462728337494) rotate(204.21328293477177)"><path class="outline" fill="#A5ABB6" stroke="none" d="M 25 0.5 L 33.740272197927105 0.5 L 33.740272197927105 -0.5 L 25 -0.5 Z M 79.30277219792711 0.5 L 88.04304439585421 0.5 L 88.04304439585421 3.5 L 95.04304439585421 0 L 88.04304439585421 -3.5 L 88.04304439585421 -0.5 L 79.30277219792711 -0.5 Z"/><text text-anchor="middle" pointer-events="none" font-size="8px" fill="#000000" x="56.521522197927105" y="3" transform="rotate(180 56.521522197927105 0)" font-family="sans-serif">ACTED_IN</text></g><g class="relationship" transform="translate(102.4793672216841 36.56928527180034) rotate(247.76544691596962)"><path class="outline" fill="#A5ABB6" stroke="none" d="M 25 0.5 L 33.87145967742792 0.5 L 33.87145967742792 -0.5 L 25 -0.5 Z M 79.43395967742792 0.5 L 88.30541935485584 0.5 L 88.30541935485584 3.5 L 95.30541935485584 0 L 88.30541935485584 -3.5 L 88.30541935485584 -0.5 L 79.43395967742792 -0.5 Z"/><text text-anchor="middle" pointer-events="none" font-size="8px" fill="#000000" x="56.65270967742792" y="3" transform="rotate(180 56.65270967742792 0)" font-family="sans-serif">ACTED_IN</text></g><g class="relationship" transform="translate(102.4793672216841 36.56928527180034) rotate(206.97658711567624)"><path class="outline" fill="#A5ABB6" stroke="none" d="M 25 0.5 L 49.76681090132139 0.5 L 49.76681090132139 -0.5 L 25 -0.5 Z M 95.32931090132139 0.5 L 120.09612180264278 0.5 L 120.09612180264278 3.5 L 127.09612180264278 0 L 120.09612180264278 -3.5 L 120.09612180264278 -0.5 L 95.32931090132139 -0.5 Z"/><text text-anchor="middle" pointer-events="none" font-size="8px" fill="#000000" x="72.54806090132139" y="3" transform="rotate(180 72.54806090132139 0)" font-family="sans-serif">ACTED_IN</text></g><g class="relationship" transform="translate(102.4793672216841 36.56928527180034) rotate(533.7534403808229)"><path class="outline" fill="#A5ABB6" stroke="none" d="M 25 0.5 L 64.57465375674454 0.5 L 64.57465375674454 -0.5 L 25 -0.5 Z M 110.13715375674454 0.5 L 149.71180751348908 0.5 L 149.71180751348908 3.5 L 156.71180751348908 0 L 149.71180751348908 -3.5 L 149.71180751348908 -0.5 L 110.13715375674454 -0.5 Z"/><text text-anchor="middle" pointer-events="none" font-size="8px" fill="#000000" x="87.35590375674454" y="3" transform="rotate(180 87.35590375674454 0)" font-family="sans-serif">ACTED_IN</text></g></g><g class="layer nodes"><g class="node" aria-label="graph-node4" transform="translate(31.32867033117058,105.57462728337494)"><circle class="outline" cx="0" cy="0" r="25" fill="#C990C0" stroke="#b261a5" stroke-width="2px"/><text class="caption" text-anchor="middle" pointer-events="none" x="0" y="0" font-size="10px" fill="#FFFFFF" font-family="sans-serif"> Hugo</text><text class="caption" text-anchor="middle" pointer-events="none" x="0" y="10" font-size="10px" fill="#FFFFFF" font-family="sans-serif"> Weavi…</text></g><g class="node" aria-label="graph-node1" transform="translate(102.4793672216841,36.56928527180034)"><circle class="outline" cx="0" cy="0" r="25" fill="#C990C0" stroke="#b261a5" stroke-width="2px"/><text class="caption" text-anchor="middle" pointer-events="none" x="0" y="0" font-size="10px" fill="#FFFFFF" font-family="sans-serif"> Keanu</text><text class="caption" text-anchor="middle" pointer-events="none" x="0" y="10" font-size="10px" fill="#FFFFFF" font-family="sans-serif"> Reeves</text></g><g class="node" aria-label="graph-node10" transform="translate(56.95590742358109,-74.79053034477754)"><circle class="outline" cx="0" cy="0" r="25" fill="#F79767" stroke="#f36924" stroke-width="2px"/><text class="caption" text-anchor="middle" pointer-events="none" x="0" y="-5" font-size="10px" fill="#FFFFFF" font-family="sans-serif"> The</text><text class="caption" text-anchor="middle" pointer-events="none" x="0" y="5" font-size="10px" fill="#FFFFFF" font-family="sans-serif"> Matrix</text><text class="caption" text-anchor="middle" pointer-events="none" x="0" y="15" font-size="10px" fill="#FFFFFF" font-family="sans-serif"> Rev…</text></g><g class="node" aria-label="graph-node9" transform="translate(-33.067474406391696,-32.42552606976127)"><circle class="outline" cx="0" cy="0" r="25" fill="#F79767" stroke="#f36924" stroke-width="2px"/><text class="caption" text-anchor="middle" pointer-events="none" x="0" y="-5" font-size="10px" fill="#FFFFFF" font-family="sans-serif"> The</text><text class="caption" text-anchor="middle" pointer-events="none" x="0" y="5" font-size="10px" fill="#FFFFFF" font-family="sans-serif"> Matrix</text><text class="caption" text-anchor="middle" pointer-events="none" x="0" y="15" font-size="10px" fill="#FFFFFF" font-family="sans-serif"> Rel…</text></g><g class="node" aria-label="graph-node0" transform="translate(-78.15359429454772,56.34083563323678)"><circle class="outline" cx="0" cy="0" r="25" fill="#F79767" stroke="#f36924" stroke-width="2px"/><text class="caption" text-anchor="middle" pointer-events="none" x="0" y="0" font-size="10px" fill="#FFFFFF" font-family="sans-serif"> The</text><text class="caption" text-anchor="middle" pointer-events="none" x="0" y="10" font-size="10px" fill="#FFFFFF" font-family="sans-serif"> Matrix</text></g></g></svg>