<svg xmlns="http://www.w3.org/2000/svg" width="640.0940551757812" height="64.53802490234375" viewBox="-545.02490234375 -5.021484375 640.0940551757812 64.53802490234375"><title>Neo4j Graph Visualization</title><desc>Created using Neo4j (http://www.neo4j.com/)</desc><g class="layer relationships"><g class="relationship" transform="translate(-366.4898449570358 26.820137249968404) rotate(538.5839759046613)"><path class="outline" fill="#A5ABB6" stroke="none" d="M 25 0.5 L 54.06771051051136 0.5 L 54.06771051051136 -0.5 L 25 -0.5 Z M 88.51302301051136 0.5 L 117.58073352102272 0.5 L 117.58073352102272 3.5 L 124.58073352102272 0 L 117.58073352102272 -3.5 L 117.58073352102272 -0.5 L 88.51302301051136 -0.5 Z"/><text text-anchor="middle" pointer-events="none" font-size="8px" fill="#000000" x="71.29036676051136" y="3" transform="rotate(180 71.29036676051136 0)" font-family="sans-serif">ORIGIN</text></g><g class="relationship" transform="translate(-366.4898449570358 26.820137249968404) rotate(358.7886520000907)"><path class="outline" fill="#A5ABB6" stroke="none" d="M 25 0.5 L 34.11444403355554 0.5 L 34.11444403355554 -0.5 L 25 -0.5 Z M 93.30194403355554 0.5 L 102.41638806711109 0.5 L 102.41638806711109 3.5 L 109.41638806711109 0 L 102.41638806711109 -3.5 L 102.41638806711109 -0.5 L 93.30194403355554 -0.5 Z"/><text text-anchor="middle" pointer-events="none" font-size="8px" fill="#000000" x="63.70819403355554" y="3" font-family="sans-serif">DESTINATION</text></g><g class="relationship" transform="translate(-90.59860952400365 25.615578671262117) rotate(180.66282223791865)"><path class="outline" fill="#A5ABB6" stroke="none" d="M 25 0.5 L 50.03452200191225 0.5 L 50.03452200191225 -0.5 L 25 -0.5 Z M 84.47983450191225 0.5 L 109.5143565038245 0.5 L 109.5143565038245 3.5 L 116.5143565038245 0 L 109.5143565038245 -3.5 L 109.5143565038245 -0.5 L 84.47983450191225 -0.5 Z"/><text text-anchor="middle" pointer-events="none" font-size="8px" fill="#000000" x="67.25717825191225" y="3" transform="rotate(180 67.25717825191225 0)" font-family="sans-serif">ORIGIN</text></g><g class="relationship" transform="translate(-90.59860952400365 25.615578671262117) rotate(361.1576981586111)"><path class="outline" fill="#A5ABB6" stroke="none" d="M 25 0.5 L 45.25611658413678 0.5 L 45.25611658413678 -0.5 L 25 -0.5 Z M 104.44361658413678 0.5 L 124.69973316827355 0.5 L 124.69973316827355 3.5 L 131.69973316827355 0 L 124.69973316827355 -3.5 L 124.69973316827355 -0.5 L 104.44361658413678 -0.5 Z"/><text text-anchor="middle" pointer-events="none" font-size="8px" fill="#000000" x="74.84986658413678" y="3" font-family="sans-serif">DESTINATION</text></g></g><g class="layer nodes"><g class="node" aria-label="graph-node21" transform="translate(-516.0248991633938,30.51654147418263)"><circle class="outline" cx="0" cy="0" r="25" fill="#8DCC93" stroke="#5db665" stroke-width="2px"/><text class="caption" text-anchor="middle" pointer-events="none" x="0" y="5" font-size="10px" fill="#2A2C34" font-family="sans-serif"> MSN</text></g><g class="node" aria-label="graph-node68" transform="translate(66.06913698340998,28.781582350495796)"><circle class="outline" cx="0" cy="0" r="25" fill="#8DCC93" stroke="#5db665" stroke-width="2px"/><text class="caption" text-anchor="middle" pointer-events="none" x="0" y="5" font-size="10px" fill="#2A2C34" font-family="sans-serif"> GRR</text></g><g class="node" aria-label="graph-node271" transform="translate(-366.4898449570358,26.820137249968404)"><circle class="outline" cx="0" cy="0" r="25" fill="#ECB5C9" stroke="#da7298" stroke-width="2px"/><text class="caption" text-anchor="middle" pointer-events="none" x="0" y="5" font-size="10px" fill="#2A2C34" font-family="sans-serif"> 11/30/20…</text></g><g class="node" aria-label="graph-node7" transform="translate(-232.10349680059556,23.978516201301254)"><circle class="outline" cx="0" cy="0" r="25" fill="#8DCC93" stroke="#5db665" stroke-width="2px"/><text class="caption" text-anchor="middle" pointer-events="none" x="0" y="5" font-size="10px" fill="#2A2C34" font-family="sans-serif"> ORD</text></g><g class="node" aria-label="graph-node851" transform="translate(-90.59860952400365,25.615578671262117)"><circle class="outline" cx="0" cy="0" r="25" fill="#ECB5C9" stroke="#da7298" stroke-width="2px"/><text class="caption" text-anchor="middle" pointer-events="none" x="0" y="5" font-size="10px" fill="#2A2C34" font-family="sans-serif"> 11/17/20…</text></g></g></svg>