<svg xmlns="http://www.w3.org/2000/svg" width="521.519775390625" height="94.07588958740234" viewBox="-114.99577331542969 -7.190390586853027 521.519775390625 94.07588958740234"><title>Neo4j Graph Visualization</title><desc>Created using Neo4j (http://www.neo4j.com/)</desc><g class="layer relationships"><g class="relationship" transform="translate(-85.99577034989238 43.60553589752996) rotate(358.0356211578278)"><path class="outline" fill="#A5ABB6" stroke="none" d="M 21.40063509461097,12.933012701892217 L 21.90063509461097,12.06698729810778 A 174.24054149306414 174.24054149306414 0 0 0 95.36139921660092,34.87455297486346 L 95.28300467932793,35.87147538735388 A 175.24054149306414 175.24054149306414 0 0 1 21.40063509461097,12.933012701892217 Z M 117.34046846849172,36.213196042474294 L 117.29299336623248,35.21432362085807 A 174.24054149306414 174.24054149306414 0 0 0 191.4250164865504,14.693308402921058 L 190.00621733786855,12.05001330480967 L 197.8291715735906,11.82332623901533 L 193.31674868479283,18.217701867069575 L 191.89794953611099,15.574406768958188 A 175.24054149306414 175.24054149306414 0 0 1 117.34046846849172,36.213196042474294"/><text text-anchor="middle" pointer-events="none" font-size="8px" fill="#000000" x="106.3140992767057" y="38.88982742902695" font-family="sans-serif">road</text></g><g class="relationship" transform="translate(133.73165747457008 36.069254640631954) rotate(357.702453830903)"><path class="outline" fill="#A5ABB6" stroke="none" d="M 25 0.5 L 48.29952005917818 0.5 L 48.29952005917818 -0.5 L 25 -0.5 Z M 67.63545755917818 0.5 L 90.93497761835636 0.5 L 90.93497761835636 3.5 L 97.93497761835636 0 L 90.93497761835636 -3.5 L 90.93497761835636 -0.5 L 67.63545755917818 -0.5 Z"/><text text-anchor="middle" pointer-events="none" font-size="8px" fill="#000000" x="57.96748880917818" y="3" font-family="sans-serif">trek</text></g><g class="relationship" transform="translate(256.5678092551444 31.140914375848908) rotate(358.54934695355587)"><path class="outline" fill="#A5ABB6" stroke="none" d="M 25 0.5 L 47.32952279519625 0.5 L 47.32952279519625 -0.5 L 25 -0.5 Z M 66.66546029519625 0.5 L 88.9949830903925 0.5 L 88.9949830903925 3.5 L 95.9949830903925 0 L 88.9949830903925 -3.5 L 88.9949830903925 -0.5 L 66.66546029519625 -0.5 Z"/><text text-anchor="middle" pointer-events="none" font-size="8px" fill="#000000" x="56.99749154519625" y="3" font-family="sans-serif">trek</text></g><g class="relationship" transform="translate(-85.99577034989238 43.60553589752996) rotate(358.0356211578278)"><path class="outline" fill="#A5ABB6" stroke="none" d="M 25 0.5 L 75.56503411225941 0.5 L 75.56503411225941 -0.5 L 25 -0.5 Z M 137.2915966122594 0.5 L 187.85663072451882 0.5 L 187.85663072451882 3.5 L 194.85663072451882 0 L 187.85663072451882 -3.5 L 187.85663072451882 -0.5 L 137.2915966122594 -0.5 Z"/><text text-anchor="middle" pointer-events="none" font-size="8px" fill="#000000" x="106.42831536225941" y="3" font-family="sans-serif">PublicTransport</text></g><g class="relationship" transform="translate(-85.99577034989238 43.60553589752996) rotate(358.0356211578278)"><path class="outline" fill="#A5ABB6" stroke="none" d="M 21.40063509461097,-12.933012701892217 L 21.90063509461097,-12.06698729810778 A 174.24054149306414 174.24054149306414 0 0 1 96.69174329909526,-34.974043815376746 L 96.62098386253476,-35.97153722494778 A 175.24054149306414 175.24054149306414 0 0 0 21.40063509461097,-12.933012701892217 Z M 116.0000317605255,-36.27176308076736 L 115.96020578270142,-35.27255644973934 A 174.24054149306414 174.24054149306414 0 0 1 191.4250164865504,-14.693308402921058 L 190.00621733786855,-12.05001330480967 L 197.8291715735906,-11.82332623901533 L 193.31674868479283,-18.217701867069575 L 191.89794953611099,-15.574406768958188 A 175.24054149306414 175.24054149306414 0 0 0 116.0000317605255,-36.27176308076736"/><text text-anchor="middle" pointer-events="none" font-size="8px" fill="#000000" x="106.31409927670565" y="-32.88982742902695" font-family="sans-serif">trek</text></g></g><g class="layer nodes"><g class="node" aria-label="graph-node188" transform="translate(-85.99577034989238,43.60553589752996)"><circle class="outline" cx="0" cy="0" r="25" fill="#57C7E3" stroke="#23b3d7" stroke-width="2px"/><text class="caption" text-anchor="middle" pointer-events="none" x="0" y="5" font-size="10px" fill="#2A2C34" font-family="sans-serif"> Darjeeling</text></g><g class="node" aria-label="graph-node190" transform="translate(377.5240133985888,28.0778093737678)"><circle class="outline" cx="0" cy="0" r="25" fill="#F16667" stroke="#eb2728" stroke-width="2px"/><text class="caption" text-anchor="middle" pointer-events="none" x="0" y="5" font-size="10px" fill="#FFFFFF" font-family="sans-serif"> Sandakp…</text></g><g class="node" aria-label="graph-node187" transform="translate(133.73165747457008,36.069254640631954)"><circle class="outline" cx="0" cy="0" r="25" fill="#57C7E3" stroke="#23b3d7" stroke-width="2px"/><text class="caption" text-anchor="middle" pointer-events="none" x="0" y="5" font-size="10px" fill="#2A2C34" font-family="sans-serif"> Rimbik</text></g><g class="node" aria-label="graph-node189" transform="translate(256.5678092551444,31.140914375848908)"><circle class="outline" cx="0" cy="0" r="25" fill="#D9C8AE" stroke="#c0a378" stroke-width="2px"/><text class="caption" text-anchor="middle" pointer-events="none" x="0" y="5" font-size="10px" fill="#2A2C34" font-family="sans-serif"> BhikeBh…</text></g></g></svg>