<svg xmlns="http://www.w3.org/2000/svg" width="546.7619018554688" height="103.05848693847656" viewBox="-293.0693054199219 -54.41664123535156 546.7619018554688 103.05848693847656"><title>Neo4j Graph Visualization</title><desc>Created using Neo4j (http://www.neo4j.com/)</desc><g class="layer relationships"><g class="relationship" transform="translate(224.69261711588098 -9.725896183928356) rotate(536.6394606552669)"><path class="outline" fill="#A5ABB6" stroke="none" d="M 21.40063509461097,12.933012701892217 L 21.90063509461097,12.06698729810778 A 188.37288055826238 188.37288055826238 0 0 0 102.37492026709604,36.80443320212652 L 102.30212764925207,37.80178030057692 A 189.37288055826238 189.37288055826238 0 0 1 21.40063509461097,12.933012701892217 Z M 124.35728357660027,38.12349529589457 L 124.31361202142047,37.12444935337331 A 188.37288055826238 188.37288055826238 0 0 0 205.4751872370886,14.7447596238853 L 204.05160474052482,12.104037587116325 L 211.8741357389768,11.863187471364675 L 207.37329723250693,18.265722339577266 L 205.94971473594316,15.62500030280829 A 189.37288055826238 189.37288055826238 0 0 1 124.35728357660027,38.12349529589457"/><text text-anchor="middle" pointer-events="none" font-size="8px" fill="#000000" x="113.33231024575693" y="40.784077320633486" transform="rotate(180 113.33231024575693 37.784077320633486)" font-family="sans-serif">road</text></g><g class="relationship" transform="translate(-8.785363836183535 3.9838902170315666) rotate(181.13329346448683)"><path class="outline" fill="#A5ABB6" stroke="none" d="M 25 0.5 L 48.43926732205843 0.5 L 48.43926732205843 -0.5 L 25 -0.5 Z M 67.77520482205843 0.5 L 91.21447214411685 0.5 L 91.21447214411685 3.5 L 98.21447214411685 0 L 91.21447214411685 -3.5 L 91.21447214411685 -0.5 L 67.77520482205843 -0.5 Z"/><text text-anchor="middle" pointer-events="none" font-size="8px" fill="#000000" x="58.10723607205843" y="3" transform="rotate(180 58.10723607205843 0)" font-family="sans-serif">trek</text></g><g class="relationship" transform="translate(-131.97573375901018 1.5469035468840655) rotate(538.5354385751654)"><path class="outline" fill="#A5ABB6" stroke="none" d="M 25 0.5 L 52.90039718185271 0.5 L 52.90039718185271 -0.5 L 25 -0.5 Z M 72.23633468185271 0.5 L 100.13673186370542 0.5 L 100.13673186370542 3.5 L 107.13673186370542 0 L 100.13673186370542 -3.5 L 100.13673186370542 -0.5 L 72.23633468185271 -0.5 Z"/><text text-anchor="middle" pointer-events="none" font-size="8px" fill="#000000" x="62.56836593185271" y="3" transform="rotate(180 62.56836593185271 0)" font-family="sans-serif">trek</text></g><g class="relationship" transform="translate(224.69261711588098 -9.725896183928356) rotate(536.6394606552669)"><path class="outline" fill="#A5ABB6" stroke="none" d="M 25 0.5 L 82.57679510602577 0.5 L 82.57679510602577 -0.5 L 25 -0.5 Z M 144.30335760602577 0.5 L 201.88015271205154 0.5 L 201.88015271205154 3.5 L 208.88015271205154 0 L 201.88015271205154 -3.5 L 201.88015271205154 -0.5 L 144.30335760602577 -0.5 Z"/><text text-anchor="middle" pointer-events="none" font-size="8px" fill="#000000" x="113.44007635602577" y="3" transform="rotate(180 113.44007635602577 0)" font-family="sans-serif">PublicTransport</text></g><g class="relationship" transform="translate(224.69261711588098 -9.725896183928356) rotate(536.6394606552669)"><path class="outline" fill="#A5ABB6" stroke="none" d="M 21.40063509461097,-12.933012701892217 L 21.90063509461097,-12.06698729810778 A 188.37288055826238 188.37288055826238 0 0 1 103.70606210522193,-36.89684972909103 L 103.64033601327161,-37.894687431744586 A 189.37288055826238 189.37288055826238 0 0 0 21.40063509461097,-12.933012701892217 Z M 123.01693470226927,-38.17733074549116 L 122.98034097613436,-37.17800052018646 A 188.37288055826238 188.37288055826238 0 0 1 205.4751872370886,-14.7447596238853 L 204.05160474052482,-12.104037587116325 L 211.8741357389768,-11.863187471364675 L 207.37329723250693,-18.265722339577266 L 205.94971473594316,-15.62500030280829 A 189.37288055826238 189.37288055826238 0 0 0 123.01693470226927,-38.17733074549116"/><text text-anchor="middle" pointer-events="none" font-size="8px" fill="#000000" x="113.33231024575691" y="-34.784077320633486" transform="rotate(180 113.33231024575691 -37.784077320633486)" font-family="sans-serif">trek</text></g></g><g class="layer nodes"><g class="node" aria-label="graph-node188" transform="translate(224.69261711588098,-9.725896183928356)"><circle class="outline" cx="0" cy="0" r="25" fill="#57C7E3" stroke="#23b3d7" stroke-width="2px"/><text class="caption" text-anchor="middle" pointer-events="none" x="0" y="5" font-size="10px" fill="#2A2C34" font-family="sans-serif"> Darjeeling</text></g><g class="node" aria-label="graph-node190" transform="translate(-264.0692998185743,4.924138109119362)"><circle class="outline" cx="0" cy="0" r="25" fill="#F16667" stroke="#eb2728" stroke-width="2px"/><text class="caption" text-anchor="middle" pointer-events="none" x="0" y="5" font-size="10px" fill="#FFFFFF" font-family="sans-serif"> Sandakp…</text></g><g class="node" aria-label="graph-node187" transform="translate(-8.785363836183535,3.9838902170315666)"><circle class="outline" cx="0" cy="0" r="25" fill="#57C7E3" stroke="#23b3d7" stroke-width="2px"/><text class="caption" text-anchor="middle" pointer-events="none" x="0" y="5" font-size="10px" fill="#2A2C34" font-family="sans-serif"> Rimbik</text></g><g class="node" aria-label="graph-node189" transform="translate(-131.97573375901018,1.5469035468840655)"><circle class="outline" cx="0" cy="0" r="25" fill="#D9C8AE" stroke="#c0a378" stroke-width="2px"/><text class="caption" text-anchor="middle" pointer-events="none" x="0" y="5" font-size="10px" fill="#2A2C34" font-family="sans-serif"> BhikeBh…</text></g></g></svg>